<?xml version="1.0" standalone="no"?>
<!DOCTYPE svg PUBLIC "-//W3C//DTD SVG 20010904//EN"
 "http://www.w3.org/TR/2001/REC-SVG-20010904/DTD/svg10.dtd">
<svg version="1.0" xmlns="http://www.w3.org/2000/svg"
 width="316.000000pt" height="316.000000pt" viewBox="0 0 316.000000 316.000000"
 preserveAspectRatio="xMidYMid meet">
<metadata>
Created by potrace 1.11, written by Peter Selinger 2001-2013
</metadata>
<g transform="translate(0.000000,316.000000) scale(0.100000,-0.100000)"
fill="#000000" stroke="none">
<path d="M1038 3068 c-10 -8 -19 -36 -23 -73 -8 -76 -14 -131 -20 -175 -2 -19
-7 -60 -10 -90 -3 -30 -8 -66 -10 -80 -3 -14 -7 -52 -10 -85 -3 -33 -7 -71
-10 -85 -9 -41 -17 -417 -18 -849 l-2 -405 -45 -27 c-25 -15 -72 -44 -105 -64
-33 -19 -100 -61 -150 -91 -91 -57 -124 -71 -270 -118 -102 -32 -159 -64 -219
-123 -71 -70 -116 -167 -131 -286 -11 -77 -3 -91 67 -122 160 -69 473 -173
605 -201 6 -1 51 -11 100 -22 48 -12 106 -23 128 -27 23 -3 50 -7 60 -9 11 -2
40 -7 65 -10 25 -3 54 -8 65 -10 11 -2 58 -7 105 -11 47 -4 99 -9 115 -11 99
-11 512 -4 625 11 19 2 53 7 75 9 91 11 151 19 170 22 11 3 56 12 100 20 243
47 526 132 736 221 121 51 127 58 115 136 -14 98 -30 146 -72 212 -76 120
-134 156 -371 233 -69 22 -135 56 -275 142 -100 62 -188 118 -195 124 -9 8
-13 148 -14 566 -2 348 -7 598 -14 670 -17 157 -26 231 -30 255 -2 11 -7 47
-10 80 -3 33 -7 71 -9 85 -3 14 -7 56 -11 95 -7 76 -18 105 -40 105 -15 0 -45
-27 -45 -40 0 -5 -11 -33 -24 -62 -13 -29 -33 -74 -44 -100 l-21 -48 -33 19
c-33 19 -136 55 -193 67 -63 13 -262 12 -326 -1 -74 -16 -148 -39 -200 -65
l-37 -17 -28 71 c-37 92 -76 169 -89 173 -6 2 -18 -2 -27 -9z"/>
</g>
</svg>
